<svg xmlns="http://www.w3.org/2000/svg" viewBox="0 0 64 64" id="world"><g><circle cx="32" cy="32" r="30" fill="#2296bd"></circle><path fill="#b2e25a" d="M62 32a29.69 29.69 0 01-4.32 15.49 11.27 11.27 0 01-1.94 0 1.62 1.62 0 00-1.32.33c-1.34 1.38-3.49 2.08-5.06.94-2.54-1.82-2.66-4.8-1.39-7.9a4 4 0 00.16-4.18 6.69 6.69 0 00-1.73-2.78 2.22 2.22 0 00-3 0c-.42.46-.53 1.13-1 1.52-.79.62-2 0-2.63-.74-2.38-2.66-2-7.09.23-9.87s6-4.09 9.54-4.18c2.91.09 7.43.28 9.17-2.28A29.68 29.68 0 0162 32zM33 2c-.05.57-.12 1.17-.21 1.74A8.13 8.13 0 0129 9.53c-.95.38-.48 1.33.09 2a5 5 0 01-3.19 7.91c-1.37 0-1.77.92-1.46 2.19a21.41 21.41 0 01-.71 10.24 1.62 1.62 0 01-.72 1c-.44.23-1 0-1.46.05-1.27 0-2.05 1.59-1.85 2.86.9 4.86 8 4.65 10 8.72 1.18 3 .22 7-1.36 9.75-3.33 4.19-7.17.94-7.47-3.58-.27-2.29-.44-4.9-2.22-6.38a22.28 22.28 0 00-2.72-1.48 6.48 6.48 0 01-2.92-7c.31-1.13.93-2.24.79-3.39-.16-1.78-1.87-2.89-3.33-3.93a25.73 25.73 0 01-6.57-7.1A30 30 0 0132 2C32.32 2 32.64 2 33 2zM51.67 9.35a13.06 13.06 0 01-.83 1.57c-1.94 2.64-3.15 6.93-7 7.1-2.83.19-6.83-1.73-6.75-4.93A11.09 11.09 0 0038 9.44a2.29 2.29 0 011.31-2 6.93 6.93 0 003-3.65A29.59 29.59 0 0151.67 9.35z"></path><path d="M62,32A30,30,0,0,1,8.44,50.56,30,30,0,0,0,49.54,7.67,29.92,29.92,0,0,1,62,32Z" opacity=".08"></path></g></svg>